<?xml version="1.0" encoding="utf-8"?>
<!-- Generator: Adobe Illustrator 15.0.0, SVG Export Plug-In . SVG Version: 6.00 Build 0)  -->
<!DOCTYPE svg PUBLIC "-//W3C//DTD SVG 1.1//EN" "http://www.w3.org/Graphics/SVG/1.1/DTD/svg11.dtd">
<svg version="1.1" id="Layer_1" xmlns="http://www.w3.org/2000/svg" xmlns:xlink="http://www.w3.org/1999/xlink" x="0px" y="0px"
	 width="25px" height="25px" viewBox="0 0 25 25" enable-background="new 0 0 25 25" xml:space="preserve">
<g>
	<path fill="#002561" d="M6.619,9.972C5.359,10.434,3.962,9.788,3.5,8.527C3.038,7.266,3.685,5.87,4.944,5.409l13.438-4.927
		c1.259-0.461,2.655,0.186,3.118,1.446c0.462,1.26-0.186,2.656-1.445,3.118L6.619,9.972z"/>
	<path fill="#002561" d="M6.619,17.246c-1.26,0.46-2.656-0.188-3.118-1.447c-0.463-1.262,0.185-2.654,1.443-3.118l13.438-4.926
		C19.641,7.293,21.037,7.94,21.5,9.2c0.462,1.26-0.186,2.656-1.445,3.118L6.619,17.246z"/>
	<path fill="#002561" d="M6.619,24.518c-1.26,0.463-2.656-0.185-3.118-1.445c-0.463-1.26,0.185-2.655,1.443-3.117l13.438-4.928
		c1.259-0.463,2.655,0.187,3.118,1.445c0.462,1.26-0.186,2.654-1.445,3.118L6.619,24.518z"/>
</g>
</svg>
